<svg width="881" height="541" viewBox="0 0 881 541" fill="none" xmlns="http://www.w3.org/2000/svg">
<path d="M662.818 540.243C686.872 524.705 709.531 507.398 729.511 486.803C747.125 468.646 761.548 448.468 767.742 423.4C770.687 411.482 771.425 399.411 768.663 387.394C764.204 368.002 751.759 356.203 732.853 350.834C730.338 350.12 727.856 349.29 724.815 348.344C725.945 347.65 726.548 347 727.229 346.902C738.484 345.288 747.208 335.979 747.973 323.596C749.296 302.172 750.06 280.674 749.918 259.215C749.845 248.203 746.969 240.356 730.779 240.858C719.21 241.216 707.673 242.797 696.141 244.019C691.153 244.547 687.784 247.566 687.253 252.541C686.18 262.576 685.134 272.651 684.88 282.73C684.196 309.851 691.89 334.322 707.397 356.818C717.333 371.231 720.898 387.895 717.732 406.375C716.939 402.096 716.471 398.542 715.589 395.093C714.655 391.444 713.579 387.79 712.124 384.323C707.306 372.841 700.245 363.395 688.265 358.386C677.753 353.99 667.531 355.499 657.45 359.561C634.215 368.924 613.473 381.858 598.223 402.257C595.341 406.112 593.333 410.62 590.489 415.58C591.11 401.969 595.049 390.178 603.22 380.481C610.366 372.002 618.72 364.503 626.848 356.9C640.345 344.275 651.013 329.851 653.414 311.138C654.971 299.01 655.227 286.61 654.829 274.372C654.566 266.272 649.804 259.824 642.372 255.849C639.763 254.453 637.243 252.839 634.52 251.718C620.215 245.827 615.439 229.733 621.997 215.883C623.62 212.457 625.415 209.1 627.336 205.832C633.864 194.726 635.32 190.386 636.618 176.607C639.531 183.672 638.082 189.872 636.533 195.943C634.912 202.295 632.858 208.539 630.906 214.803C629.148 220.447 630.44 225.625 633.277 230.504C636.055 235.283 642.026 237.808 646.883 236.509C651.56 235.258 654.057 231.774 654.114 225.38C654.253 209.719 653.909 194.05 654.256 178.396C654.565 164.431 651.696 151.15 647.039 138.153C641.064 121.479 632.94 106.361 616.527 97.384C637.865 101.549 650.902 116.513 662.824 132.944C663.387 132.814 663.95 132.684 664.513 132.554C663.925 125.306 663.906 117.956 662.631 110.832C659.973 95.9861 653.516 82.6506 644.038 70.9771C627.656 50.8021 615.15 28.4265 605.185 4.53244C604.809 3.62914 604.381 2.74702 603.941 1.41893C603.905 0.982834 604.179 0.702637 604.179 0.702637C608.493 6.90419 613.229 12.8582 617.04 19.3548C627.519 37.2199 642.283 51.286 656.625 65.8518C669.548 78.9764 681.607 92.9498 694.135 106.466C698.086 110.728 702.285 114.763 706.442 118.829C709.372 121.695 712.423 124.438 715.748 127.543C711.605 127.841 707.992 127.536 704.709 128.437C692.003 131.921 685.49 140.599 685.259 154.914C684.991 171.565 685.272 188.225 685.37 204.881C685.378 206.358 685.764 207.837 686.025 209.307C687.195 215.885 688.737 217.256 695.292 216.648C705.698 215.684 716.074 214.392 726.479 213.412C731.109 212.975 735.777 212.854 740.431 212.776C747.306 212.661 749.936 210.927 750.022 204.288C750.299 182.978 750.601 161.647 749.915 140.355C749.614 130.989 744.754 122.967 736.66 117.513C731.315 113.91 725.96 110.306 720.439 106.986C710.77 101.171 702.584 93.8213 696.261 83.9808C696.502 83.2455 696.617 83.0819 696.731 82.9184C706.951 93.1012 718.538 101.036 732.888 104.049C736.692 104.848 740.719 104.895 744.63 104.794C749.4 104.67 751.984 102.186 750.991 96.5672C768.505 99.1407 777.68 86.1722 788.613 76.6923C815.335 53.5215 844.082 33.6529 877.402 21.0461C878.006 20.8176 878.67 20.7487 879.786 20.7217C880.265 20.838 880.435 21.0607 880.435 21.0607C845.68 42.0252 818.473 70.0277 800.256 106.506C809.284 100.513 818.226 94.8965 830.798 94.603C812.691 104.777 800.634 118.83 792.678 136.484C786.52 150.149 783.184 164.547 782.208 179.457C781.611 188.575 781.619 197.732 781.121 206.859C780.85 211.832 782.918 214.609 787.703 215.732C795.039 217.454 802.34 219.328 809.726 221.154C806.228 213.19 802.95 205.727 799.486 197.84C800.96 197.769 801.245 197.702 801.275 197.761C809.699 214.711 824.855 225.073 839.105 236.278C854.003 247.992 863.338 263.116 867.495 282.004C867.297 282.616 867.169 282.724 867.041 282.833C859.654 268.416 849.873 256.218 834.964 248.983C824.92 244.108 814.548 240.338 803.056 242.255C787.693 244.819 781.335 256.732 781.355 268.452C781.432 312.443 792.136 352.794 822.965 386.157C839.981 404.572 851.663 426.032 855.823 451.094C856.635 455.981 856.939 460.952 857.074 465.931C854.437 458.777 852.129 451.48 849.098 444.497C841.743 427.552 829.748 414.153 815.91 402.231C809.505 396.713 803.216 391.06 796.792 385.396C796.27 391.916 796.067 398.457 795.171 404.901C792.119 426.832 783.177 446.307 769.077 463.221C740.407 497.615 704.149 521.882 663.507 540.655C663.025 540.521 662.818 540.243 662.818 540.243Z" fill="#FDFDFD"/>
<path d="M553.76 58.1691C563.095 73.3048 564.842 90.2843 566.288 107.488C567.37 120.361 573.1 130.788 585.785 136.79C585.041 124.335 584.319 112.243 583.597 100.151C583.817 100.15 584.037 100.148 584.257 100.146C586.563 108.238 588.615 116.413 591.255 124.394C593.403 130.885 596.721 136.805 602.642 140.815C606.995 143.764 609.237 143.507 612.106 139.165C616.346 132.747 617.421 125.751 615.004 117.978C625.655 129.298 624.484 150.675 612.687 162.639C602.448 173.023 593.918 184.347 589.729 198.64C586.944 208.145 588.592 217.233 590.845 226.459C585.474 219.038 582.868 210.805 583.685 201.66C584.305 194.718 585.156 187.793 586.046 180.878C587.323 170.941 580.097 157.981 570.13 152.562C560.176 147.152 546.984 148.359 538.97 155.413C529.438 163.805 526.771 174.63 531.033 186.263C535.763 199.172 545.694 207.242 556.61 214.476C557.43 215.019 558.283 215.514 559.32 216.155C558.579 216.504 558.039 216.758 556.582 217.445C561.328 221.077 565.634 224.535 570.107 227.762C582.189 236.481 594.904 244.425 606.325 253.93C620.752 265.936 629.1 282.005 629.946 300.874C631.078 326.084 618.605 347.374 591.286 355.404C574.398 360.368 561.043 369.342 548.688 381.348C541.305 388.522 532.478 394.426 523.654 399.851C510.87 407.71 499.229 416.362 492.418 430.519C491.927 430.499 491.601 430.235 491.601 430.235C494.884 415.898 503.554 405.175 514.099 395.419C519.881 390.07 525.287 384.073 529.749 377.602C535.287 369.571 535.697 360.933 529.045 353.47C524.669 361.761 520.16 370.303 515.652 378.844C515.163 378.629 514.674 378.414 514.186 378.199C515.024 373.417 516.156 368.665 516.644 363.847C518.143 349.062 514.888 335.517 505.011 324.079C502.397 321.051 499.566 317.265 494.57 319.284C490.34 320.993 488.365 325.865 489.012 331.978C489.076 332.583 489.02 333.2 489.02 334.641C483.368 326.482 482.85 317.993 484.291 309.532C486.388 297.224 490.906 285.714 499.268 276.187C508.501 265.669 518.641 263.307 531.723 267.926C528.416 270.313 524.665 272.435 521.641 275.319C514.02 282.591 513.623 291.726 516.416 301.107C523.312 324.262 547.945 338.266 571.663 332.765C594.315 327.512 605.356 304.709 595.548 283.348C589.956 271.169 580.498 262.522 569.593 255.226C556.541 246.493 543.081 238.303 530.533 228.897C509.084 212.819 498.583 190.587 497.26 164.048C496.892 156.649 497.249 149.116 498.221 141.77C500.214 126.712 511.05 119.305 523.826 113.823C518.54 119.741 512.523 125.21 512.979 134.556C526.962 133.437 537.529 126.765 545.765 116.236C558.803 99.5693 558.866 80.9067 553.565 61.5486C553.392 60.9164 553.236 60.2794 553.232 59.0795C553.516 58.3993 553.638 58.2841 553.76 58.1691Z" fill="#FDFDFD"/>
<path d="M518.111 241.78C514.27 240.405 510.453 238.958 506.585 237.668C494.686 233.699 485.295 236.783 477.964 246.912C470.035 257.867 466.76 270.402 466.298 283.607C465.974 292.9 466.571 302.248 467.172 311.545C468.342 329.664 465.564 347.166 459.986 364.363C458.832 367.923 458.419 371.818 458.257 375.584C458.049 380.402 460.157 381.926 464.269 379.636C471.751 375.469 478.946 370.781 486.208 366.224C487.818 365.214 489.206 363.849 491.014 362.98C487.636 371.234 481.354 377.25 474.56 382.227C449.206 400.799 438.62 426.647 436.069 456.87C434.067 480.591 436.011 503.866 443.085 526.653C443.22 527.089 443.046 527.621 442.933 529.483C441.029 525.038 439.532 521.774 438.228 518.435C436.856 514.921 435.59 511.362 434.422 507.775C433.253 504.182 432.144 500.56 431.212 496.899C426.226 477.309 422.428 457.499 421.591 437.26C420.956 421.912 423.245 406.809 427.289 392.047C433.168 370.586 438.197 349.041 437.672 326.484C437.979 327.878 438.286 329.271 438.592 330.664C438.927 330.696 439.262 330.728 439.597 330.76C439.978 328.186 440.374 325.615 440.737 323.039C444.747 294.644 440.894 267.926 423.646 244.166C419.747 238.795 415.687 233.497 411.26 228.562C401.454 217.629 398.829 204.264 398.276 190.377C397.773 177.733 397.94 165.048 398.237 152.39C398.769 129.681 393.314 109.446 375.424 93.866C395.64 100.432 408.851 113.883 415.07 133.719C419.899 127.868 424.782 121.952 429.665 116.036C430.127 116.347 430.589 116.657 431.052 116.967C423.317 130.115 421.607 144.479 422.203 159.283C422.302 161.753 422.994 164.202 423.062 166.671C423.211 172.064 423.324 177.469 423.116 182.857C422.608 196.001 426.348 207.874 433.137 219.005C438.931 228.505 444.453 238.171 450.12 247.804C459.007 227.469 464.435 206.365 456.587 183.751C456.018 182.109 455.965 180.073 456.324 178.357C460.309 159.337 459.99 140.589 453.551 121.729C455.41 123.6 457.33 125.415 459.111 127.358C460.869 129.276 462.487 131.324 464.518 133.731C471.992 114.228 485.134 101.287 503.966 93.9566C491.93 104.702 485.624 118.608 483.675 134.035C482.057 146.833 481.612 159.968 482.466 172.832C483.213 184.071 485.736 195.358 488.85 206.23C492.791 219.986 502.38 229.914 514.069 237.847C515.435 238.774 516.74 239.79 518.203 241.136C518.333 241.507 518.111 241.78 518.111 241.78Z" fill="#FDFDFD"/>
<path d="M415.228 245.765C411.877 254.667 407.787 263.372 405.353 272.518C401.964 285.252 405.345 297.823 408.639 310.185C411.261 320.03 414.298 329.77 416.665 339.672C417.47 343.037 416.793 346.757 416.042 350.537C415.44 349.185 414.895 347.804 414.227 346.485C409.813 337.774 401.298 337.328 396.016 345.695C388.795 357.131 388.211 369.37 392.829 381.804C395.688 389.503 399.729 396.776 402.403 404.529C404.944 411.899 405.679 419.683 403.847 427.511C401.361 411.165 393.355 397.907 381.615 386.656C373.542 378.919 365.951 370.72 363.764 359.274C361.547 347.671 363.26 336.674 370.351 326.868C370.07 332.252 369.599 337.507 369.649 342.758C369.663 344.187 371.244 345.602 372.107 347.024C373.422 345.895 375.264 345.026 375.969 343.597C381.223 332.955 383.251 321.513 381.922 309.849C380.863 300.566 378.773 291.331 376.326 282.295C373.697 272.587 366.364 267.595 356.628 266.817C346.039 265.971 337.47 270.085 332.132 279.539C327.064 288.516 326.755 298.472 326.945 308.473C327.242 324.221 332.813 338.438 339.523 352.34C340.502 354.368 341.399 356.434 342.335 358.483C342.038 358.826 341.742 359.169 341.445 359.513C336.811 356.395 331.922 353.594 327.59 350.101C314.63 339.65 304.772 327.042 301.633 310.168C299.852 300.589 302.078 291.3 304.575 282.231C309.615 263.929 311.297 245.283 309.913 226.522C309.281 217.959 305.999 209.591 303.918 201.135C303.608 199.873 303.292 198.613 303.549 197.058C306.142 200.644 308.735 204.229 311.95 208.675C320.491 189.8 333.423 173.299 330.014 151.668C329.081 145.746 326.936 139.892 324.554 134.347C320.035 123.828 316.206 113.209 315.588 101.653C314.747 85.9217 318.255 71.3087 326.976 58.0065C325.564 64.0981 323.606 70.1222 322.843 76.294C320.613 94.3345 325.457 110.258 339.589 122.165C343.313 125.303 349.039 126.437 354.054 127.557C358.441 128.536 363.435 127.257 365.022 122.792C366.26 119.308 365.053 114.956 364.942 111.297C375.124 117.224 381.17 127.294 381.958 139.888C382.488 148.366 381.608 157.089 380.162 165.497C378.102 177.481 380.049 188.814 383.117 200.27C388.379 219.92 393.319 239.656 398.387 259.33C403.731 254.595 408.935 249.983 414.541 245.378C414.944 245.385 415.228 245.765 415.228 245.765ZM359.084 164.53C355.181 169.403 350.093 173.738 347.593 179.247C339.462 197.161 335.487 216.197 335.178 235.927C335.098 241.045 337.385 244.912 342.516 245.635C350.345 246.738 358.276 247.148 366.174 247.705C368.963 247.901 369.287 246.468 368.669 243.854C365.864 231.986 363.233 220.076 360.705 208.146C357.65 193.723 352.928 179.285 360.684 164.589C360.69 164.362 360.697 164.135 360.704 163.907C360.344 163.986 359.985 164.064 359.084 164.53Z" fill="#FDFDFD"/>
<path d="M275.398 82.9284C269.901 94.4768 264.832 106.255 258.793 117.513C252.022 130.133 248.228 143.197 248.058 157.603C247.82 177.738 247.796 197.958 245.875 217.969C243.298 244.824 238.998 271.515 235.434 298.276C235.194 300.082 235.036 301.907 234.663 303.686C233.14 310.949 235.197 313.838 242.661 313.41C258.165 312.52 277.729 303.221 277.196 278.893C276.905 265.609 277.278 252.384 281.916 239.651C284.594 232.3 288.707 226.102 295.559 221.524C296.015 221.539 296.333 221.872 296.333 221.872C284.586 237.657 285.035 255.362 287.786 273.619C289.121 282.474 289.903 291.478 290.051 300.43C290.261 313.139 293.198 324.847 299.741 335.779C306.765 347.514 312.948 359.7 315.432 373.316C316.582 379.615 316.99 386.049 316.636 392.622C314.837 387.617 313.28 382.509 311.194 377.627C303.705 360.103 293.158 345.284 273.532 340.246C256.871 335.967 240.578 338.829 225.194 345.909C197.932 358.457 179.047 378.603 170.801 407.95C170.537 408.888 170.247 409.819 169.936 410.742C169.905 410.833 169.634 410.844 169.212 410.971C168.58 393.692 172.864 377.688 180.799 362.575C189.956 345.136 199.416 327.874 205.414 308.954C211.438 289.951 215.467 270.573 216.116 250.686C217.143 219.245 217.519 187.782 218.163 156.328C218.18 155.497 218.441 154.446 218.047 153.865C213.974 147.869 217.701 143.13 220.05 137.855C222.295 132.813 223.463 127.289 225.071 121.966C225.768 119.659 226.384 117.328 227.953 115.101C228.025 115.604 227.99 116.155 228.187 116.602C229.329 119.186 229.956 122.488 231.938 124.01C232.974 124.805 236.917 123.016 238.705 121.439C251.899 109.804 265.319 98.3299 274.627 82.6588C275.135 82.6791 275.267 82.8038 275.398 82.9284Z" fill="#FDFDFD"/>
<path d="M12.5788 282.212C17.3631 261.347 28.628 244.953 45.6242 231.9C54.6597 224.961 62.7035 216.66 70.7315 208.517C73.5887 205.618 75.0773 201.371 78.0686 197.984C76.5218 203.424 74.9751 208.863 73.4477 214.235C86.8853 213.406 96.0033 204.656 96.863 189.902C98.353 164.331 94.5298 139.884 77.643 119.288C72.3065 112.779 66.0743 107.005 59.7554 100.374C70.182 102.56 77.052 109.211 84.4361 115.316C67.5536 74.0445 36.8169 45.0898 0 19.9971C4.35811 21.676 7.96889 22.9665 11.5015 24.4438C38.2346 35.6238 61.825 52.0001 84.9951 69.049C98.5981 79.0583 112.616 88.1466 129.137 92.8369C149.415 98.5936 168.037 95.5325 185.245 83.4556C185.789 83.0733 186.351 82.7092 186.935 82.3921C187.21 82.2431 187.556 82.2261 188.722 82.9197C185.807 85.7349 183.026 88.7077 179.941 91.3221C176.684 94.0817 173.137 96.4995 169.68 99.095C177.458 100.454 191.78 96.21 198.984 89.1151C215.813 72.5415 232.81 56.0593 248.505 38.441C258.476 27.2479 266.23 14.0808 274.994 1.80969C275.504 1.09582 276.148 0.478379 277 0C267.478 20.3365 259.394 41.5258 245.567 59.3873C224.077 87.1473 213.617 118.887 209.092 153.1C208.486 157.686 207.547 162.228 206.691 167.205C204.778 161.174 203.081 155.393 201.113 149.705C196.595 136.643 188.933 130.438 175.414 130.541C163.586 130.631 151.768 132.053 139.515 132.917C140.35 134.106 141.122 135.202 142.239 136.791C129.663 140.655 128.911 150.709 129.144 161.481C129.374 172.14 129.197 182.809 129.17 193.473C129.14 205.924 134.278 210.216 146.282 207.505C163.29 203.663 173.356 192.639 178.169 176.291C178.611 174.79 179.083 173.297 180.461 171.933C181.365 192.665 182.996 213.402 182.848 234.127C182.78 243.623 179.247 253.102 177.191 262.568C176.939 263.725 176.093 264.752 174.973 266.885C174.605 260.113 174.797 254.474 173.862 249.028C172.93 243.601 171.204 238.19 165.619 233.713C166.674 237.588 167.458 240.464 168.073 242.722C162.302 240.066 156.566 236.798 150.425 234.736C139.445 231.05 131.286 236.481 130.23 248.088C129.462 256.53 129.26 265.051 129.312 273.533C129.421 291.018 129.443 308.521 130.302 325.978C131.122 342.662 140.355 354.616 153.964 363.528C155.263 364.379 156.629 365.127 157.735 366.92C151.379 366.518 145.021 366.139 138.666 365.711C119.983 364.452 113.368 376.922 111.238 388.966C107.257 411.485 113.219 432.142 123.856 451.819C135.519 473.397 152.142 490.783 170.834 506.16C185.615 518.32 201.223 529.476 215.914 540.66C214.535 540.081 212.288 539.254 210.141 538.218C172.19 519.915 139.039 495.177 111.455 463.315C96.057 445.528 85.4228 425.241 82.9918 401.336C82.8423 399.865 82.3198 398.433 81.8316 396.405C49.7958 409.73 32.7339 435.083 23.4117 466.999C24.3592 451.468 27.9944 436.747 34.6531 422.724C41.6227 408.046 51.5468 395.472 62.101 383.349C76.0441 367.335 86.9125 349.546 89.5698 328.278C91.117 315.895 89.7209 303.143 89.6112 290.557C89.6002 289.29 89.3265 288.025 89.7962 286.609C91.6556 291.951 93.5149 297.293 95.3743 302.634C95.9197 302.601 96.4651 302.567 97.0105 302.533C97.4483 290.328 98.0533 278.125 98.2302 265.916C98.2894 261.83 97.6263 257.638 96.6547 253.65C93.3786 240.204 79.2926 237.168 68.2731 239.206C42.5586 243.96 25.1562 259.477 13.3884 282.496C12.8954 282.465 12.5788 282.212 12.5788 282.212Z" fill="#FDFDFD"/>
</svg>
